<svg id="Capa_1" style="fill: #45b649" enable-background="new 0 0 511.05 511.05" height="512" viewBox="0 0 511.05 511.05" width="512" xmlns="http://www.w3.org/2000/svg"><g><path d="m376.038 234.956c-11.271-8.297-18-21.605-18-35.599v-.691c0-14.428-7.056-27.983-18.873-36.258l-26.271-18.396c15.221-23.59 26.624-45.822 33.96-66.29 7.231-20.176 7.788-31.506 7.828-32.731l.513-15.833-15.837.351c-24 .531-47.386 5.295-69.687 14.046-2.776-19.605-7.163-29.429-7.745-30.668l-6.051-12.887-13.186 5.373c-49.503 20.17-86.078 59.125-105.771 112.652-1.597 4.341-3.012 8.603-4.284 12.767-16.895 8.935-32.204 20.504-48.156 36.04l-72.682 72.579v271.639h196.15v-15c0-33.954 20.737-61.109 32.989-74.189l23.943 20.153c16.745 14.096 38.022 21.858 59.912 21.858h90.105c46.514 0 84.354-37.841 84.354-84.354v-53.868zm93.215 122.476h-26.139v-35.853l26.139 19.24zm-151.427-287.68c-4.716 12.666-13.5 31.994-29.53 57.034l-18.166-12.721c1.364-13.68 1.965-26.72 1.803-39.087 15.667-7.11 31.988-11.796 48.906-14.018-.821 2.638-1.813 5.57-3.013 8.792zm105.765 363.417-75.574-57.621-18.189 23.856 45.208 34.469h-50.243c-14.831 0-29.248-5.26-40.594-14.81l-43.722-36.801-9.623 7.782c-1.982 1.603-44.885 36.897-51.931 91.007h-137.125v-229.2l63.682-63.593c6.192-6.027 12.2-11.323 18.23-16.02-1.581 12.338-1.62 20.236-1.62 20.906h30c0-.294.148-29.869 12.985-64.761 14.805-40.242 39.524-69.786 73.606-88.038 4.034 21.218 7.412 65.889-10.477 138.729l29.135 7.155c3.28-13.355 5.991-26.277 8.171-38.775l56.447 39.527c3.808 2.667 6.081 7.034 6.081 11.684v.691c0 23.492 11.295 45.832 30.216 59.759l54.86 40.381v72.935l15 15h40.556c-3.427 23.389-21.799 41.979-45.079 45.738z"/><path d="m293.767 234.205-21.213-21.213-43.116 43.117 43.294 43.294 21.213-21.213-22.081-22.081z"/></g></svg>