<svg viewBox="0 0 512 512" style="fill: #45b649" xmlns="http://www.w3.org/2000/svg"><path d="m357.234375 342.304688h-25.179687c25.804687-13.785157 54.980468-33.117188 81.339843-59.476563 66.191407-66.191406 88.109375-150.191406 89.007813-153.734375l6.214844-24.441406-24.445313 6.210937c-2.070313.527344-42.929687 11.148438-89.945313 39.558594 8.222657-54.042969 2.449219-95.765625 2.085938-98.261719l-3.613281-24.960937-20.203125 15.09375c-1.714844 1.28125-35.402344 26.726562-67.964844 70.964843-13.082031-53.074218-34.382812-89.410156-35.675781-91.578124l-12.890625-21.679688-12.890625 21.675781c-1.289063 2.167969-22.589844 38.507813-35.671875 91.582031-32.566406-44.242187-66.25-69.6875-67.964844-70.96875l-20.207031-15.089843-3.613281 24.957031c-.359376 2.496094-6.132813 44.222656 2.089843 98.261719-47.015625-28.410157-87.875-39.027344-89.949219-39.554688l-24.441406-6.210937 6.210938 24.441406c.902344 3.542969 22.816406 87.542969 89.007812 153.734375 26.359375 26.359375 55.539063 45.691406 81.339844 59.476563h-25.175781c-85.300781 0-154.699219 69.394531-154.699219 154.699218v14.996094h511.933594v-14.996094c0-85.300781-69.398438-154.699218-154.699219-154.699218zm106.664063-192.921876c-11.246094 28.503907-33.503907 74.023438-71.714844 112.234376-22.941406 22.941406-48.605469 40.152343-71.636719 52.679687 18.554687-22.605469 38.105469-51.621094 52.367187-86.046875 4.980469-12.027344 9.039063-24.046875 12.332032-35.839844 28.90625-21.167968 58.164062-34.9375 78.652344-43.027344zm-95.429688-63.710937c.492188 30.707031-2.664062 81.359375-23.269531 131.101563-12.414063 29.972656-29.542969 55.695312-46.023438 76.082031 8.492188-27.984375 15.449219-62.273438 15.449219-99.53125 0-13.023438-.851562-25.679688-2.316406-37.835938 18.585937-30.597656 40.328125-54.5 56.160156-69.816406zm-112.503906-22.355469c12.203125 28.183594 28.664062 76.179688 28.664062 130.003906 0 53.828126-16.460937 101.820313-28.664062 130.003907-12.203125-28.183594-28.660156-76.175781-28.660156-130.003907 0-53.828124 16.457031-101.824218 28.660156-130.003906zm-112.5 22.355469c15.832031 15.320313 37.574218 39.222656 56.160156 69.816406-1.464844 12.15625-2.316406 24.8125-2.316406 37.835938 0 37.308593 6.976562 71.640625 15.480468 99.644531-16.464843-20.371094-33.59375-46.113281-46.054687-76.195312-20.605469-49.742188-23.761719-100.398438-23.269531-131.101563zm-95.386719 63.730469c20.488281 8.09375 49.726563 21.859375 78.605469 43.007812 3.296875 11.792969 7.355468 23.8125 12.335937 35.839844 14.277344 34.472656 33.859375 63.519531 52.4375 86.140625-23.007812-12.523437-48.683593-29.746094-71.710937-52.773437-38.070313-38.070313-60.371094-83.660157-71.667969-112.214844zm-17.183594 332.601562c7.429688-61.71875 60.117188-109.703125 123.804688-109.703125h202.535156c63.6875 0 116.375 47.984375 123.804687 109.703125zm0 0"/></svg>