<svg id="Capa_1" style="fill: #45b649" enable-background="new 0 0 512 512" height="512" viewBox="0 0 512 512" width="512" xmlns="http://www.w3.org/2000/svg"><g><path d="m453.37 472 19.271-28.906-33.282-22.188-23.359 35.038-23.359-35.038-33.282 22.188 19.271 28.906h-62.63v-96c0-10.585 8.244-20.004 18.857-20.004h.126c37.574.278 72.987-14.167 99.657-40.647 26.671-26.482 41.36-61.765 41.36-99.349 0-21.568-11.444-40.507-28.573-51.084l25.214-37.822-33.282-22.188-23.359 35.038-23.359-35.038-33.282 22.188 25.214 37.822c-17.129 10.577-28.573 29.516-28.573 51.084 0 11.028-8.972 20-20 20s-20-8.972-20-20v-156c0-33.084-26.916-60-60-60s-60 26.916-60 60v76c0 11.028-8.972 20-20 20s-20-8.972-20-20c0-21.568-11.444-40.508-28.573-51.084l25.214-37.822-33.282-22.188-23.359 35.038-23.359-35.038-33.282 22.188 25.214 37.822c-17.129 10.577-28.573 29.516-28.573 51.084 0 77.196 62.804 140 140 140 11.028 0 20 8.972 20 20v176h-62.63l19.271-28.906-33.282-22.188-23.359 35.038-23.359-35.038-33.282 22.188 19.271 28.906h-58.63v40h512v-40zm-277.37-236c-55.14 0-100-44.86-100-100 0-11.028 8.972-20 20-20s20 8.972 20 20c0 33.084 26.916 60 60 60s60-26.916 60-60v-76c0-11.028 8.972-20 20-20s20 8.972 20 20v156c0 33.084 26.916 60 60 60s60-26.916 60-60c0-11.028 8.972-20 20-20s20 8.972 20 20c0 26.846-10.492 52.048-29.543 70.964-19.049 18.913-44.294 29.21-71.188 29.033-33.43-.224-59.269 27.717-59.269 60.003v96h-40v-176c0-33.084-26.916-60-60-60z"/></g></svg>